<mxfile host="app.diagrams.net" modified="2021-07-07T08:26:57.395Z" agent="5.0 (Windows NT 10.0; WOW64) AppleWebKit/537.36 (KHTML, like Gecko) Chrome/86.0.4240.198 Safari/537.36" etag="EHx-tQX6YE1qhhSmhryA" version="14.8.4" type="github">
  <diagram name="Page-1" id="bd83a815-5ea8-2e97-e5ec-87c9f400f2fa">
    <mxGraphModel dx="396" dy="201" grid="1" gridSize="10" guides="1" tooltips="1" connect="1" arrows="1" fold="1" page="1" pageScale="1.5" pageWidth="1169" pageHeight="826" background="none" math="0" shadow="0">
      <root>
        <mxCell id="0" style=";html=1;" />
        <mxCell id="1" style=";html=1;" parent="0" />
        <mxCell id="1516e18e63f93b96-4" value="" style="whiteSpace=wrap;html=1;rounded=0;shadow=0;strokeWidth=1;fontSize=14" parent="1" vertex="1">
          <mxGeometry x="1400" y="1140" width="60" height="50" as="geometry" />
        </mxCell>
        <mxCell id="1516e18e63f93b96-5" value="Relation 8" style="whiteSpace=wrap;html=1;rounded=0;shadow=0;strokeWidth=1;fontSize=14" parent="1" vertex="1">
          <mxGeometry x="1460" y="1140" width="210" height="50" as="geometry" />
        </mxCell>
        <mxCell id="1516e18e63f93b96-12" value="" style="rhombus;whiteSpace=wrap;html=1;rounded=0;shadow=0;strokeWidth=3;fillColor=#000000;fontSize=14" parent="1" vertex="1">
          <mxGeometry x="1415" y="1150" width="30" height="30" as="geometry" />
        </mxCell>
        <mxCell id="1516e18e63f93b96-14" value="" style="whiteSpace=wrap;html=1;rounded=0;shadow=0;strokeWidth=1;fontSize=14" parent="1" vertex="1">
          <mxGeometry x="1400" y="1090" width="60" height="50" as="geometry" />
        </mxCell>
        <mxCell id="1516e18e63f93b96-15" value="Relation 7" style="whiteSpace=wrap;html=1;rounded=0;shadow=0;strokeWidth=1;fontSize=14" parent="1" vertex="1">
          <mxGeometry x="1460" y="1090" width="210" height="50" as="geometry" />
        </mxCell>
        <mxCell id="1516e18e63f93b96-18" value="" style="whiteSpace=wrap;html=1;rounded=0;shadow=0;strokeWidth=1;fontSize=14" parent="1" vertex="1">
          <mxGeometry x="1400" y="1040" width="60" height="50" as="geometry" />
        </mxCell>
        <mxCell id="1516e18e63f93b96-19" value="Relation 6" style="whiteSpace=wrap;html=1;rounded=0;shadow=0;strokeWidth=1;fontSize=14" parent="1" vertex="1">
          <mxGeometry x="1460" y="1040" width="210" height="50" as="geometry" />
        </mxCell>
        <mxCell id="1516e18e63f93b96-20" value="" style="whiteSpace=wrap;html=1;rounded=0;shadow=0;strokeWidth=1;fontSize=14" parent="1" vertex="1">
          <mxGeometry x="1400" y="990" width="60" height="50" as="geometry" />
        </mxCell>
        <mxCell id="1516e18e63f93b96-21" value="Relation 5" style="whiteSpace=wrap;html=1;rounded=0;shadow=0;strokeWidth=1;fontSize=14" parent="1" vertex="1">
          <mxGeometry x="1460" y="990" width="210" height="50" as="geometry" />
        </mxCell>
        <mxCell id="1516e18e63f93b96-22" value="" style="whiteSpace=wrap;html=1;rounded=0;shadow=0;strokeWidth=1;fontSize=14" parent="1" vertex="1">
          <mxGeometry x="1400" y="940" width="60" height="50" as="geometry" />
        </mxCell>
        <mxCell id="1516e18e63f93b96-23" value="Relation 4" style="whiteSpace=wrap;html=1;rounded=0;shadow=0;strokeWidth=1;fontSize=14" parent="1" vertex="1">
          <mxGeometry x="1460" y="940" width="210" height="50" as="geometry" />
        </mxCell>
        <mxCell id="1516e18e63f93b96-24" value="" style="whiteSpace=wrap;html=1;rounded=0;shadow=0;strokeWidth=1;fontSize=14" parent="1" vertex="1">
          <mxGeometry x="1400" y="890" width="60" height="50" as="geometry" />
        </mxCell>
        <mxCell id="1516e18e63f93b96-25" value="Relation 3" style="whiteSpace=wrap;html=1;rounded=0;shadow=0;strokeWidth=1;fontSize=14" parent="1" vertex="1">
          <mxGeometry x="1460" y="890" width="210" height="50" as="geometry" />
        </mxCell>
        <mxCell id="1516e18e63f93b96-26" value="" style="whiteSpace=wrap;html=1;rounded=0;shadow=0;strokeWidth=1;fontSize=14" parent="1" vertex="1">
          <mxGeometry x="1400" y="840" width="60" height="50" as="geometry" />
        </mxCell>
        <mxCell id="1516e18e63f93b96-27" value="Relation 2" style="whiteSpace=wrap;html=1;rounded=0;shadow=0;strokeWidth=1;fontSize=14" parent="1" vertex="1">
          <mxGeometry x="1460" y="840" width="210" height="50" as="geometry" />
        </mxCell>
        <mxCell id="1516e18e63f93b96-28" value="" style="whiteSpace=wrap;html=1;rounded=0;shadow=0;strokeWidth=1;fontSize=14" parent="1" vertex="1">
          <mxGeometry x="1400" y="790" width="60" height="50" as="geometry" />
        </mxCell>
        <mxCell id="1516e18e63f93b96-29" value="Relation 1" style="whiteSpace=wrap;html=1;rounded=0;shadow=0;strokeWidth=1;fontSize=14" parent="1" vertex="1">
          <mxGeometry x="1460" y="790" width="210" height="50" as="geometry" />
        </mxCell>
        <mxCell id="1516e18e63f93b96-6" value="" style="ellipse;whiteSpace=wrap;html=1;rounded=0;shadow=0;strokeWidth=3;fontSize=14" parent="1" vertex="1">
          <mxGeometry x="1415" y="800" width="30" height="30" as="geometry" />
        </mxCell>
        <mxCell id="1516e18e63f93b96-7" value="" style="ellipse;whiteSpace=wrap;html=1;rounded=0;shadow=0;strokeWidth=3;fontSize=14;fillColor=#000000;" parent="1" vertex="1">
          <mxGeometry x="1415" y="850" width="30" height="30" as="geometry" />
        </mxCell>
        <mxCell id="1516e18e63f93b96-8" value="" style="triangle;whiteSpace=wrap;html=1;rounded=0;shadow=0;strokeWidth=3;fillColor=#000000;fontSize=14;direction=north;" parent="1" vertex="1">
          <mxGeometry x="1415" y="950" width="30" height="30" as="geometry" />
        </mxCell>
        <mxCell id="1516e18e63f93b96-9" value="" style="triangle;whiteSpace=wrap;html=1;rounded=0;shadow=0;strokeWidth=3;fontSize=14;direction=north;" parent="1" vertex="1">
          <mxGeometry x="1415" y="900" width="30" height="30" as="geometry" />
        </mxCell>
        <mxCell id="1516e18e63f93b96-10" value="" style="whiteSpace=wrap;html=1;rounded=0;shadow=0;strokeWidth=3;fontSize=14" parent="1" vertex="1">
          <mxGeometry x="1415" y="1000" width="30" height="30" as="geometry" />
        </mxCell>
        <mxCell id="1516e18e63f93b96-11" value="" style="whiteSpace=wrap;html=1;rounded=0;shadow=0;strokeWidth=3;fillColor=#000000;fontSize=14" parent="1" vertex="1">
          <mxGeometry x="1415" y="1050" width="30" height="30" as="geometry" />
        </mxCell>
        <mxCell id="1516e18e63f93b96-13" value="" style="rhombus;whiteSpace=wrap;html=1;rounded=0;shadow=0;strokeWidth=3;fontSize=14" parent="1" vertex="1">
          <mxGeometry x="1415" y="1100" width="30" height="30" as="geometry" />
        </mxCell>
        <mxCell id="GTaibQTKU4__gtefQqnn-4" value="智慧养殖系统APP" style="rounded=0;whiteSpace=wrap;html=1;" vertex="1" parent="1">
          <mxGeometry x="310" y="120" width="120" height="30" as="geometry" />
        </mxCell>
        <mxCell id="GTaibQTKU4__gtefQqnn-5" value="用户登录界面" style="rounded=0;whiteSpace=wrap;html=1;" vertex="1" parent="1">
          <mxGeometry x="310" y="190" width="120" height="30" as="geometry" />
        </mxCell>
        <mxCell id="GTaibQTKU4__gtefQqnn-6" value="功能选择界面" style="rounded=0;whiteSpace=wrap;html=1;" vertex="1" parent="1">
          <mxGeometry x="310" y="260" width="120" height="30" as="geometry" />
        </mxCell>
        <mxCell id="GTaibQTKU4__gtefQqnn-7" value="提醒备忘功能" style="rounded=0;whiteSpace=wrap;html=1;" vertex="1" parent="1">
          <mxGeometry x="90" y="310" width="80" height="30" as="geometry" />
        </mxCell>
        <mxCell id="GTaibQTKU4__gtefQqnn-8" value="视频监控功能" style="rounded=0;whiteSpace=wrap;html=1;" vertex="1" parent="1">
          <mxGeometry x="360" y="310" width="80" height="30" as="geometry" />
        </mxCell>
        <mxCell id="GTaibQTKU4__gtefQqnn-9" value="知识学习功能" style="rounded=0;whiteSpace=wrap;html=1;" vertex="1" parent="1">
          <mxGeometry x="230" y="310" width="80" height="30" as="geometry" />
        </mxCell>
        <mxCell id="GTaibQTKU4__gtefQqnn-10" value="智慧养殖功能" style="rounded=0;whiteSpace=wrap;html=1;" vertex="1" parent="1">
          <mxGeometry x="495" y="310" width="80" height="30" as="geometry" />
        </mxCell>
        <mxCell id="GTaibQTKU4__gtefQqnn-11" value="实时显示温湿度" style="rounded=0;whiteSpace=wrap;html=1;" vertex="1" parent="1">
          <mxGeometry x="550" y="410" width="90" height="30" as="geometry" />
        </mxCell>
        <mxCell id="GTaibQTKU4__gtefQqnn-12" value="连接控制电路" style="rounded=0;whiteSpace=wrap;html=1;" vertex="1" parent="1">
          <mxGeometry x="550" y="460" width="90" height="30" as="geometry" />
        </mxCell>
        <mxCell id="GTaibQTKU4__gtefQqnn-13" value="实时烟雾报警" style="rounded=0;whiteSpace=wrap;html=1;" vertex="1" parent="1">
          <mxGeometry x="550" y="510" width="90" height="30" as="geometry" />
        </mxCell>
        <mxCell id="GTaibQTKU4__gtefQqnn-14" value="登录验证功能" style="rounded=0;whiteSpace=wrap;html=1;" vertex="1" parent="1">
          <mxGeometry x="480" y="160" width="115" height="30" as="geometry" />
        </mxCell>
        <mxCell id="GTaibQTKU4__gtefQqnn-15" value="找回密码功能" style="rounded=0;whiteSpace=wrap;html=1;" vertex="1" parent="1">
          <mxGeometry x="480" y="220" width="120" height="30" as="geometry" />
        </mxCell>
        <mxCell id="GTaibQTKU4__gtefQqnn-17" value="液位数据显示" style="rounded=0;whiteSpace=wrap;html=1;" vertex="1" parent="1">
          <mxGeometry x="550" y="360" width="90" height="30" as="geometry" />
        </mxCell>
        <mxCell id="GTaibQTKU4__gtefQqnn-22" value="存储记录事件" style="rounded=0;whiteSpace=wrap;html=1;" vertex="1" parent="1">
          <mxGeometry x="140" y="370" width="90" height="30" as="geometry" />
        </mxCell>
        <mxCell id="GTaibQTKU4__gtefQqnn-23" value="事件定时提醒" style="rounded=0;whiteSpace=wrap;html=1;" vertex="1" parent="1">
          <mxGeometry x="140" y="440" width="90" height="30" as="geometry" />
        </mxCell>
        <mxCell id="GTaibQTKU4__gtefQqnn-25" value="液位数据显示" style="rounded=0;whiteSpace=wrap;html=1;" vertex="1" parent="1">
          <mxGeometry x="290" y="370" width="90" height="30" as="geometry" />
        </mxCell>
        <mxCell id="GTaibQTKU4__gtefQqnn-26" value="液位数据显示" style="rounded=0;whiteSpace=wrap;html=1;" vertex="1" parent="1">
          <mxGeometry x="280" y="440" width="90" height="30" as="geometry" />
        </mxCell>
        <mxCell id="GTaibQTKU4__gtefQqnn-27" value="液位数据显示" style="rounded=0;whiteSpace=wrap;html=1;" vertex="1" parent="1">
          <mxGeometry x="390" y="390" width="90" height="30" as="geometry" />
        </mxCell>
        <mxCell id="GTaibQTKU4__gtefQqnn-28" value="液位数据显示" style="rounded=0;whiteSpace=wrap;html=1;" vertex="1" parent="1">
          <mxGeometry x="380" y="350" width="90" height="30" as="geometry" />
        </mxCell>
        <mxCell id="GTaibQTKU4__gtefQqnn-31" value="" style="endArrow=none;html=1;strokeWidth=1;" edge="1" parent="1">
          <mxGeometry width="50" height="50" relative="1" as="geometry">
            <mxPoint x="430" y="210" as="sourcePoint" />
            <mxPoint x="430" y="170" as="targetPoint" />
          </mxGeometry>
        </mxCell>
        <mxCell id="GTaibQTKU4__gtefQqnn-32" value="" style="endArrow=none;html=1;strokeWidth=1;" edge="1" parent="1">
          <mxGeometry width="50" height="50" relative="1" as="geometry">
            <mxPoint x="430" y="240" as="sourcePoint" />
            <mxPoint x="430" y="190" as="targetPoint" />
          </mxGeometry>
        </mxCell>
        <mxCell id="GTaibQTKU4__gtefQqnn-33" value="" style="endArrow=none;html=1;strokeWidth=1;entryX=0;entryY=0.333;entryDx=0;entryDy=0;entryPerimeter=0;" edge="1" parent="1" target="GTaibQTKU4__gtefQqnn-14">
          <mxGeometry width="50" height="50" relative="1" as="geometry">
            <mxPoint x="430" y="170.34" as="sourcePoint" />
            <mxPoint x="475" y="170" as="targetPoint" />
          </mxGeometry>
        </mxCell>
        <mxCell id="GTaibQTKU4__gtefQqnn-35" value="" style="endArrow=none;html=1;strokeWidth=1;entryX=-0.003;entryY=0.656;entryDx=0;entryDy=0;entryPerimeter=0;" edge="1" parent="1" target="GTaibQTKU4__gtefQqnn-15">
          <mxGeometry width="50" height="50" relative="1" as="geometry">
            <mxPoint x="430" y="240" as="sourcePoint" />
            <mxPoint x="510" y="210" as="targetPoint" />
          </mxGeometry>
        </mxCell>
        <mxCell id="GTaibQTKU4__gtefQqnn-36" value="" style="endArrow=none;html=1;strokeWidth=1;entryX=0.366;entryY=0.967;entryDx=0;entryDy=0;entryPerimeter=0;" edge="1" parent="1" target="GTaibQTKU4__gtefQqnn-7">
          <mxGeometry width="50" height="50" relative="1" as="geometry">
            <mxPoint x="120" y="450" as="sourcePoint" />
            <mxPoint x="120" y="342" as="targetPoint" />
          </mxGeometry>
        </mxCell>
        <mxCell id="GTaibQTKU4__gtefQqnn-37" value="" style="endArrow=none;html=1;strokeWidth=1;" edge="1" parent="1">
          <mxGeometry width="50" height="50" relative="1" as="geometry">
            <mxPoint x="120" y="384.86" as="sourcePoint" />
            <mxPoint x="140" y="384.86" as="targetPoint" />
          </mxGeometry>
        </mxCell>
        <mxCell id="GTaibQTKU4__gtefQqnn-38" value="" style="endArrow=none;html=1;strokeWidth=1;" edge="1" parent="1">
          <mxGeometry width="50" height="50" relative="1" as="geometry">
            <mxPoint x="120" y="450" as="sourcePoint" />
            <mxPoint x="140" y="450" as="targetPoint" />
            <Array as="points">
              <mxPoint x="140" y="450" />
            </Array>
          </mxGeometry>
        </mxCell>
        <mxCell id="GTaibQTKU4__gtefQqnn-41" value="" style="endArrow=none;html=1;strokeWidth=1;entryX=0.359;entryY=0.994;entryDx=0;entryDy=0;entryPerimeter=0;" edge="1" parent="1" target="GTaibQTKU4__gtefQqnn-9">
          <mxGeometry width="50" height="50" relative="1" as="geometry">
            <mxPoint x="259" y="450" as="sourcePoint" />
            <mxPoint x="270" y="370" as="targetPoint" />
            <Array as="points">
              <mxPoint x="259" y="360" />
            </Array>
          </mxGeometry>
        </mxCell>
        <mxCell id="GTaibQTKU4__gtefQqnn-42" value="" style="endArrow=none;html=1;strokeWidth=1;" edge="1" parent="1">
          <mxGeometry width="50" height="50" relative="1" as="geometry">
            <mxPoint x="260" y="384.86" as="sourcePoint" />
            <mxPoint x="280" y="384.86" as="targetPoint" />
          </mxGeometry>
        </mxCell>
      </root>
    </mxGraphModel>
  </diagram>
</mxfile>
